<svg width="522" height="522" viewBox="0 0 522 522" fill="none" xmlns="http://www.w3.org/2000/svg">
<g filter="url(#filter0_f_1604_56)">
<circle cx="261" cy="261" r="61" fill="#09161D"/>
</g>
<rect x="230.5" y="230.5" width="61" height="61" rx="4.5" stroke="white" stroke-dasharray="2 2"/>
<path d="M249.333 275C248.711 275 248.167 274.767 247.7 274.3C247.233 273.833 247 273.289 247 272.667V265.978H249.333V272.667H256.022V275H249.333ZM265.978 275V272.667H272.667V265.978H275V272.667C275 273.289 274.767 273.833 274.3 274.3C273.833 274.767 273.289 275 272.667 275H265.978ZM261 266.561C259.367 266.561 258.031 266.043 256.994 265.006C255.957 263.969 255.439 262.633 255.439 261C255.439 259.367 255.957 258.031 256.994 256.994C258.031 255.957 259.367 255.439 261 255.439C262.633 255.439 263.969 255.957 265.006 256.994C266.043 258.031 266.561 259.367 266.561 261C266.561 262.633 266.043 263.969 265.006 265.006C263.969 266.043 262.633 266.561 261 266.561ZM261 264.228C261.907 264.228 262.672 263.917 263.294 263.294C263.917 262.672 264.228 261.907 264.228 261C264.228 260.093 263.917 259.328 263.294 258.706C262.672 258.083 261.907 257.772 261 257.772C260.093 257.772 259.328 258.083 258.706 258.706C258.083 259.328 257.772 260.093 257.772 261C257.772 261.907 258.083 262.672 258.706 263.294C259.328 263.917 260.093 264.228 261 264.228ZM247 256.022V249.333C247 248.711 247.233 248.167 247.7 247.7C248.167 247.233 248.711 247 249.333 247H256.022V249.333H249.333V256.022H247ZM272.667 256.022V249.333H265.978V247H272.667C273.289 247 273.833 247.233 274.3 247.7C274.767 248.167 275 248.711 275 249.333V256.022H272.667Z" fill="white"/>
<defs>
<filter id="filter0_f_1604_56" x="0" y="0" width="522" height="522" filterUnits="userSpaceOnUse" color-interpolation-filters="sRGB">
<feFlood flood-opacity="0" result="BackgroundImageFix"/>
<feBlend mode="normal" in="SourceGraphic" in2="BackgroundImageFix" result="shape"/>
<feGaussianBlur stdDeviation="100" result="effect1_foregroundBlur_1604_56"/>
</filter>
</defs>
</svg>
