<svg xmlns="http://www.w3.org/2000/svg" xmlns:xlink="http://www.w3.org/1999/xlink" width="500" zoomAndPan="magnify" viewBox="0 0 375 374.999991" height="500" preserveAspectRatio="xMidYMid meet" version="1.0"><defs><g/><clipPath id="id1"><path d="M 101.648438 116.363281 L 277.898438 116.363281 L 277.898438 249.109375 L 101.648438 249.109375 Z M 101.648438 116.363281 " clip-rule="nonzero"/></clipPath></defs><g clip-path="url(#id1)"><path stroke-linecap="butt" transform="matrix(0.000000000000000046, 0.748678, -0.750699, 0.000000000000000046, 277.899685, 116.365116)" fill="none" stroke-linejoin="miter" d="M -0.00245006 0.00166132 L 177.30484 0.00166132 L 177.30484 234.782913 L -0.00245006 234.782913 L -0.00245006 0.00166132 " stroke="#ece6db" stroke-width="2" stroke-opacity="1" stroke-miterlimit="4"/></g><g fill="#ece6db" fill-opacity="1"><g transform="translate(47.975463, 265.464013)"><g><path d="M 169.453125 -169.453125 C 169.453125 -202.59375 176.019531 -211.664062 189.777344 -211.035156 L 189.777344 -213.851562 L 143.816406 -213.851562 L 143.816406 -211.035156 C 157.574219 -211.664062 164.140625 -202.59375 164.140625 -169.453125 L 164.140625 -65.65625 C 138.816406 -118.492188 92.230469 -169.765625 46.273438 -213.851562 L 0 -213.851562 L 0 -211.035156 C 13.445312 -211.664062 20.007812 -202.59375 20.007812 -169.453125 L 20.007812 -44.082031 C 20.007812 -10.941406 13.445312 -2.1875 0 -2.8125 L 0 0 L 45.648438 0 L 45.648438 -2.8125 C 32.203125 -2.1875 25.636719 -10.941406 25.636719 -44.082031 L 25.636719 -196.03125 C 82.226562 -142.566406 139.128906 -76.597656 159.449219 0 L 169.453125 0 Z M 169.453125 -169.453125 "/></g></g></g><g fill="#ece6db" fill-opacity="1"><g transform="translate(189.158531, 266.840089)"><g><path d="M 52.246094 -160.246094 L 0 -160.246094 L 0 -158.136719 C 10.074219 -158.605469 14.992188 -151.8125 14.992188 -126.980469 L 14.992188 -33.035156 C 14.992188 -8.199219 10.074219 -1.640625 0 -2.109375 L 0 0 L 52.246094 0 L 52.246094 -2.109375 C 42.171875 -1.640625 37.25 -8.199219 37.25 -33.035156 L 37.25 -68.410156 C 45.683594 -80.59375 57.632812 -74.265625 68.410156 -70.519531 C 86.214844 -64.191406 99.101562 -67.707031 106.832031 -85.277344 L 106.832031 -33.035156 C 106.832031 -8.199219 101.910156 -1.640625 91.835938 -2.109375 L 91.835938 0 L 144.316406 0 L 144.316406 -2.109375 C 134.007812 -1.640625 129.089844 -8.199219 129.089844 -33.035156 L 129.089844 -126.980469 C 129.089844 -151.8125 134.007812 -158.605469 144.316406 -158.136719 L 144.316406 -160.246094 L 91.835938 -160.246094 L 91.835938 -158.136719 C 101.910156 -158.605469 106.832031 -151.8125 106.832031 -126.980469 L 106.832031 -91.601562 C 98.398438 -79.65625 86.449219 -85.980469 75.671875 -89.730469 C 57.867188 -96.054688 45.214844 -92.539062 37.25 -74.96875 L 37.25 -126.980469 C 37.25 -151.8125 42.171875 -158.605469 52.246094 -158.136719 Z M 52.246094 -160.246094 "/></g></g></g><path fill="#272727" d="M 226.160156 197.417969 L 331.0625 197.417969 L 331.0625 220.417969 L 226.160156 220.417969 L 226.160156 197.417969 " fill-opacity="1" fill-rule="nonzero"/><g fill="#ece6db" fill-opacity="1"><g transform="translate(229.893988, 214.694123)"><g><path d="M 2.265625 -7.824219 L 8.230469 0.65625 L 8.230469 -10.621094 L 7.136719 -10.621094 L 7.136719 -2.8125 L 1.171875 -11.292969 L 1.171875 0 L 2.265625 0 Z M 2.265625 -7.824219 "/></g></g></g><g fill="#ece6db" fill-opacity="1"><g transform="translate(239.286307, 214.694123)"><g><path d="M 7.886719 -3.59375 C 7.886719 -4.53125 7.511719 -5.34375 6.792969 -6.042969 C 6.089844 -6.714844 5.25 -7.058594 4.296875 -7.058594 C 3.296875 -7.058594 2.453125 -6.699219 1.75 -5.996094 C 1.046875 -5.296875 0.703125 -4.453125 0.703125 -3.46875 C 0.703125 -2.46875 1.046875 -1.625 1.75 -0.9375 C 2.078125 -0.609375 2.453125 -0.359375 2.890625 -0.171875 C 3.328125 0.015625 3.84375 0.109375 4.453125 0.109375 C 5.0625 0.109375 5.652344 -0.078125 6.246094 -0.453125 C 6.839844 -0.828125 7.277344 -1.359375 7.574219 -2.015625 L 6.324219 -2.015625 C 6.074219 -1.6875 5.777344 -1.4375 5.421875 -1.25 C 5.0625 -1.0625 4.6875 -0.984375 4.296875 -0.984375 C 3.703125 -0.984375 3.171875 -1.171875 2.703125 -1.5625 C 2.234375 -1.9375 1.9375 -2.421875 1.84375 -3.015625 L 7.886719 -3.015625 Z M 6.730469 -3.953125 L 1.859375 -3.953125 C 1.921875 -4.234375 2.03125 -4.5 2.1875 -4.75 C 2.6875 -5.5625 3.390625 -5.964844 4.296875 -5.964844 C 4.875 -5.964844 5.390625 -5.777344 5.839844 -5.40625 C 6.308594 -5.015625 6.589844 -4.53125 6.730469 -3.953125 Z M 6.730469 -3.953125 "/></g></g></g><g fill="#ece6db" fill-opacity="1"><g transform="translate(247.789325, 214.694123)"><g><path d="M 6.636719 -3.4375 C 6.636719 -2.765625 6.402344 -2.171875 5.933594 -1.6875 C 5.46875 -1.1875 4.890625 -0.9375 4.21875 -0.9375 C 3.53125 -0.9375 2.953125 -1.1875 2.484375 -1.6875 C 2.015625 -2.171875 1.796875 -2.765625 1.796875 -3.4375 C 1.796875 -4.09375 2.015625 -4.6875 2.484375 -5.1875 C 2.953125 -5.683594 3.53125 -5.933594 4.21875 -5.933594 C 4.890625 -5.933594 5.46875 -5.683594 5.933594 -5.1875 C 6.402344 -4.6875 6.636719 -4.09375 6.636719 -3.4375 Z M 7.730469 0 L 7.730469 -6.871094 L 6.636719 -6.871094 L 6.636719 -5.683594 C 6.574219 -5.777344 6.496094 -5.855469 6.433594 -5.933594 C 5.777344 -6.652344 4.984375 -7.027344 4.046875 -7.027344 C 3.09375 -7.027344 2.296875 -6.652344 1.640625 -5.933594 C 1.015625 -5.21875 0.703125 -4.390625 0.703125 -3.4375 C 0.703125 -2.46875 1.015625 -1.640625 1.640625 -0.9375 C 2.296875 -0.203125 3.09375 0.15625 4.046875 0.15625 C 4.984375 0.15625 5.777344 -0.203125 6.433594 -0.9375 C 6.496094 -1 6.574219 -1.078125 6.636719 -1.171875 L 6.636719 0 Z M 7.730469 0 "/></g></g></g><g fill="#ece6db" fill-opacity="1"><g transform="translate(256.682393, 214.694123)"><g><path d="M 9.886719 -0.03125 L 10.980469 -0.03125 L 10.980469 -4.328125 C 10.980469 -5.09375 10.777344 -5.730469 10.402344 -6.230469 C 10.214844 -6.480469 9.964844 -6.667969 9.683594 -6.824219 C 9.386719 -6.980469 8.996094 -7.058594 8.527344 -7.058594 C 8.042969 -7.058594 7.621094 -6.917969 7.261719 -6.667969 C 6.933594 -6.417969 6.667969 -6.121094 6.449219 -5.746094 C 6.371094 -5.917969 6.277344 -6.074219 6.167969 -6.230469 C 5.980469 -6.480469 5.730469 -6.667969 5.453125 -6.824219 C 5.15625 -6.980469 4.765625 -7.058594 4.296875 -7.058594 C 3.8125 -7.058594 3.390625 -6.917969 3.03125 -6.667969 C 2.71875 -6.433594 2.46875 -6.152344 2.265625 -5.792969 L 2.265625 -6.902344 L 1.171875 -6.902344 L 1.171875 -0.03125 L 2.265625 -0.03125 L 2.265625 -3.546875 C 2.3125 -4.09375 2.453125 -4.578125 2.6875 -4.96875 C 2.84375 -5.25 3.078125 -5.5 3.359375 -5.683594 C 3.640625 -5.871094 3.9375 -5.964844 4.265625 -5.964844 C 4.578125 -5.964844 4.828125 -5.902344 4.984375 -5.808594 C 5.421875 -5.53125 5.652344 -5.03125 5.652344 -4.328125 L 5.652344 -0.03125 L 6.746094 -0.03125 L 6.746094 -4.328125 C 6.746094 -4.40625 6.730469 -4.5 6.730469 -4.578125 C 6.777344 -4.71875 6.839844 -4.84375 6.917969 -4.96875 C 7.074219 -5.25 7.308594 -5.5 7.589844 -5.683594 C 7.871094 -5.871094 8.167969 -5.964844 8.496094 -5.964844 C 8.808594 -5.964844 9.058594 -5.902344 9.214844 -5.808594 C 9.652344 -5.53125 9.886719 -5.03125 9.886719 -4.328125 Z M 9.886719 -0.03125 "/></g></g></g><g fill="#ece6db" fill-opacity="1"><g transform="translate(268.58663, 214.694123)"><g><path d="M 5.917969 -1.171875 L 5.917969 0 L 7.011719 0 L 7.011719 -6.871094 L 5.917969 -6.871094 L 5.917969 -4 C 5.917969 -3.03125 5.730469 -2.296875 5.375 -1.75 C 5.03125 -1.21875 4.421875 -0.953125 3.578125 -0.953125 C 3.109375 -0.953125 2.765625 -1.109375 2.5625 -1.421875 C 2.359375 -1.734375 2.265625 -2.125 2.265625 -2.578125 L 2.265625 -6.871094 L 1.171875 -6.871094 L 1.171875 -2.578125 C 1.171875 -1.78125 1.375 -1.125 1.8125 -0.609375 C 2.25 -0.109375 2.84375 0.140625 3.625 0.140625 C 4.640625 0.140625 5.40625 -0.296875 5.917969 -1.171875 Z M 5.917969 -1.171875 "/></g></g></g><g fill="#ece6db" fill-opacity="1"><g transform="translate(276.527984, 214.694123)"><g><path d="M 2.265625 0 L 2.265625 -11.714844 L 1.171875 -11.714844 L 1.171875 0 Z M 2.265625 0 "/></g></g></g><g fill="#ece6db" fill-opacity="1"><g transform="translate(279.9604, 214.694123)"><g/></g></g><g fill="#ece6db" fill-opacity="1"><g transform="translate(284.172898, 214.694123)"><g><path d="M 2.265625 0 L 2.265625 -4.75 L 7.089844 -4.75 L 7.089844 0 L 8.183594 0 L 8.183594 -10.621094 L 7.089844 -10.621094 L 7.089844 -5.839844 L 2.265625 -5.839844 L 2.265625 -10.621094 L 1.171875 -10.621094 L 1.171875 0 Z M 2.265625 0 "/></g></g></g><g fill="#ece6db" fill-opacity="1"><g transform="translate(293.518412, 214.694123)"><g><path d="M 6.636719 -3.4375 C 6.636719 -2.765625 6.402344 -2.171875 5.933594 -1.6875 C 5.46875 -1.1875 4.890625 -0.9375 4.21875 -0.9375 C 3.53125 -0.9375 2.953125 -1.1875 2.484375 -1.6875 C 2.015625 -2.171875 1.796875 -2.765625 1.796875 -3.4375 C 1.796875 -4.09375 2.015625 -4.6875 2.484375 -5.1875 C 2.953125 -5.683594 3.53125 -5.933594 4.21875 -5.933594 C 4.890625 -5.933594 5.46875 -5.683594 5.933594 -5.1875 C 6.402344 -4.6875 6.636719 -4.09375 6.636719 -3.4375 Z M 7.730469 0 L 7.730469 -6.871094 L 6.636719 -6.871094 L 6.636719 -5.683594 C 6.574219 -5.777344 6.496094 -5.855469 6.433594 -5.933594 C 5.777344 -6.652344 4.984375 -7.027344 4.046875 -7.027344 C 3.09375 -7.027344 2.296875 -6.652344 1.640625 -5.933594 C 1.015625 -5.21875 0.703125 -4.390625 0.703125 -3.4375 C 0.703125 -2.46875 1.015625 -1.640625 1.640625 -0.9375 C 2.296875 -0.203125 3.09375 0.15625 4.046875 0.15625 C 4.984375 0.15625 5.777344 -0.203125 6.433594 -0.9375 C 6.496094 -1 6.574219 -1.078125 6.636719 -1.171875 L 6.636719 0 Z M 7.730469 0 "/></g></g></g><g fill="#ece6db" fill-opacity="1"><g transform="translate(302.411481, 214.694123)"><g><path d="M 6.636719 -3.4375 C 6.636719 -2.765625 6.402344 -2.171875 5.933594 -1.6875 C 5.46875 -1.1875 4.890625 -0.9375 4.21875 -0.9375 C 3.53125 -0.9375 2.953125 -1.1875 2.484375 -1.6875 C 2.015625 -2.171875 1.796875 -2.765625 1.796875 -3.4375 C 1.796875 -4.09375 2.015625 -4.6875 2.484375 -5.1875 C 2.953125 -5.683594 3.53125 -5.933594 4.21875 -5.933594 C 4.890625 -5.933594 5.46875 -5.683594 5.933594 -5.1875 C 6.402344 -4.6875 6.636719 -4.09375 6.636719 -3.4375 Z M 7.730469 3.90625 L 7.730469 -6.871094 L 6.636719 -6.871094 L 6.636719 -5.683594 C 6.574219 -5.777344 6.496094 -5.855469 6.433594 -5.933594 C 5.777344 -6.652344 4.984375 -7.027344 4.046875 -7.027344 C 3.09375 -7.027344 2.296875 -6.652344 1.640625 -5.933594 C 1.015625 -5.21875 0.703125 -4.390625 0.703125 -3.4375 C 0.703125 -2.46875 1.015625 -1.640625 1.640625 -0.9375 C 2.296875 -0.203125 3.09375 0.15625 4.046875 0.15625 C 4.984375 0.15625 5.777344 -0.203125 6.433594 -0.9375 C 6.496094 -1 6.574219 -1.078125 6.636719 -1.171875 L 6.636719 3.90625 Z M 7.730469 3.90625 "/></g></g></g><g fill="#ece6db" fill-opacity="1"><g transform="translate(311.304549, 214.694123)"><g><path d="M 5.917969 -1.171875 L 5.917969 0 L 7.011719 0 L 7.011719 -6.871094 L 5.917969 -6.871094 L 5.917969 -4 C 5.917969 -3.03125 5.730469 -2.296875 5.375 -1.75 C 5.03125 -1.21875 4.421875 -0.953125 3.578125 -0.953125 C 3.109375 -0.953125 2.765625 -1.109375 2.5625 -1.421875 C 2.359375 -1.734375 2.265625 -2.125 2.265625 -2.578125 L 2.265625 -6.871094 L 1.171875 -6.871094 L 1.171875 -2.578125 C 1.171875 -1.78125 1.375 -1.125 1.8125 -0.609375 C 2.25 -0.109375 2.84375 0.140625 3.625 0.140625 C 4.640625 0.140625 5.40625 -0.296875 5.917969 -1.171875 Z M 5.917969 -1.171875 "/></g></g></g><g fill="#ece6db" fill-opacity="1"><g transform="translate(319.245904, 214.694123)"><g><path d="M 7.886719 -3.59375 C 7.886719 -4.53125 7.511719 -5.34375 6.792969 -6.042969 C 6.089844 -6.714844 5.25 -7.058594 4.296875 -7.058594 C 3.296875 -7.058594 2.453125 -6.699219 1.75 -5.996094 C 1.046875 -5.296875 0.703125 -4.453125 0.703125 -3.46875 C 0.703125 -2.46875 1.046875 -1.625 1.75 -0.9375 C 2.078125 -0.609375 2.453125 -0.359375 2.890625 -0.171875 C 3.328125 0.015625 3.84375 0.109375 4.453125 0.109375 C 5.0625 0.109375 5.652344 -0.078125 6.246094 -0.453125 C 6.839844 -0.828125 7.277344 -1.359375 7.574219 -2.015625 L 6.324219 -2.015625 C 6.074219 -1.6875 5.777344 -1.4375 5.421875 -1.25 C 5.0625 -1.0625 4.6875 -0.984375 4.296875 -0.984375 C 3.703125 -0.984375 3.171875 -1.171875 2.703125 -1.5625 C 2.234375 -1.9375 1.9375 -2.421875 1.84375 -3.015625 L 7.886719 -3.015625 Z M 6.730469 -3.953125 L 1.859375 -3.953125 C 1.921875 -4.234375 2.03125 -4.5 2.1875 -4.75 C 2.6875 -5.5625 3.390625 -5.964844 4.296875 -5.964844 C 4.875 -5.964844 5.390625 -5.777344 5.839844 -5.40625 C 6.308594 -5.015625 6.589844 -4.53125 6.730469 -3.953125 Z M 6.730469 -3.953125 "/></g></g></g></svg>